<svg width="326" height="360" viewBox="0 0 326 360" fill="none" xmlns="http://www.w3.org/2000/svg">
<rect width="326" height="360" fill="#022C6B"/>
<path d="M220.136 339.088L215.928 343.312C215.367 343.876 214.722 344.157 213.992 344.157C213.263 344.157 212.618 343.876 212.057 343.312L172.842 303.943C172.281 303.38 172 302.732 172 302C172 301.268 172.281 300.62 172.842 300.057L212.057 260.688C212.618 260.124 213.263 259.843 213.992 259.843C214.722 259.843 215.367 260.124 215.928 260.688L220.136 264.912C220.697 265.475 220.977 266.123 220.977 266.855C220.977 267.587 220.697 268.235 220.136 268.798L187.063 302L220.136 335.202C220.697 335.765 220.977 336.413 220.977 337.145C220.977 337.877 220.697 338.525 220.136 339.088ZM269.87 248.944L238.481 358.013C238.256 358.745 237.822 359.294 237.176 359.66C236.531 360.026 235.872 360.097 235.199 359.871L229.981 358.435C229.252 358.21 228.705 357.773 228.34 357.126C227.976 356.478 227.906 355.788 228.13 355.056L259.519 245.987C259.744 245.255 260.178 244.706 260.823 244.34C261.469 243.974 262.128 243.903 262.801 244.129L268.019 245.565C268.748 245.79 269.295 246.227 269.66 246.874C270.024 247.522 270.094 248.212 269.87 248.944ZM325.158 303.943L285.943 343.312C285.382 343.876 284.737 344.157 284.008 344.157C283.278 344.157 282.633 343.876 282.072 343.312L277.864 339.088C277.303 338.525 277.023 337.877 277.023 337.145C277.023 336.413 277.303 335.765 277.864 335.202L310.937 302L277.864 268.798C277.303 268.235 277.023 267.587 277.023 266.855C277.023 266.123 277.303 265.475 277.864 264.912L282.072 260.688C282.633 260.124 283.278 259.843 284.008 259.843C284.737 259.843 285.382 260.124 285.943 260.688L325.158 300.057C325.719 300.62 326 301.268 326 302C326 302.732 325.719 303.38 325.158 303.943Z" fill="#0566F8" fill-opacity="0.2"/>
</svg>
