<svg width="100" height="100" viewBox="0 0 100 100" fill="none" xmlns="http://www.w3.org/2000/svg">
<path d="M94 52C94.5304 52 95.0391 51.7893 95.4142 51.4142C95.7893 51.0391 96 50.5304 96 50C96 49.4696 95.7893 48.9609 95.4142 48.5858C95.0391 48.2107 94.5304 48 94 48H90V19.716C91.3645 19.3661 92.612 18.6614 93.6161 17.6734C94.6201 16.6854 95.3449 15.4494 95.7168 14.0907C96.0886 12.7321 96.0944 11.2993 95.7335 9.93768C95.3726 8.57609 94.6578 7.33424 93.6618 6.3382C92.6658 5.34216 91.4239 4.6274 90.0623 4.26649C88.7007 3.90557 87.2679 3.91135 85.9093 4.28324C84.5506 4.65513 83.3146 5.37988 82.3266 6.38393C81.3386 7.38797 80.6339 8.63554 80.284 10H52V6C52 5.46957 51.7893 4.96086 51.4142 4.58579C51.0391 4.21071 50.5304 4 50 4C49.4696 4 48.9609 4.21071 48.5858 4.58579C48.2107 4.96086 48 5.46957 48 6V10H19.716C19.3661 8.63554 18.6614 7.38797 17.6734 6.38393C16.6854 5.37988 15.4494 4.65513 14.0907 4.28324C12.7321 3.91135 11.2993 3.90557 9.93768 4.26649C8.57609 4.6274 7.33424 5.34216 6.3382 6.3382C5.34216 7.33424 4.6274 8.57609 4.26649 9.93768C3.90557 11.2993 3.91135 12.7321 4.28324 14.0907C4.65513 15.4494 5.37988 16.6854 6.38393 17.6734C7.38797 18.6614 8.63554 19.3661 10 19.716V48H6C5.46957 48 4.96086 48.2107 4.58579 48.5858C4.21071 48.9609 4 49.4696 4 50C4 50.5304 4.21071 51.0391 4.58579 51.4142C4.96086 51.7893 5.46957 52 6 52H10V80.284C8.63554 80.6339 7.38797 81.3386 6.38393 82.3266C5.37988 83.3146 4.65513 84.5506 4.28324 85.9093C3.91135 87.2679 3.90557 88.7007 4.26649 90.0623C4.6274 91.4239 5.34216 92.6658 6.3382 93.6618C7.33424 94.6578 8.57609 95.3726 9.93768 95.7335C11.2993 96.0944 12.7321 96.0886 14.0907 95.7168C15.4494 95.3449 16.6854 94.6201 17.6734 93.6161C18.6614 92.612 19.3661 91.3645 19.716 90H48V94C48 94.5304 48.2107 95.0391 48.5858 95.4142C48.9609 95.7893 49.4696 96 50 96C50.5304 96 51.0391 95.7893 51.4142 95.4142C51.7893 95.0391 52 94.5304 52 94V90H80.284C80.6339 91.3645 81.3386 92.612 82.3266 93.6161C83.3146 94.6201 84.5506 95.3449 85.9093 95.7168C87.2679 96.0886 88.7007 96.0944 90.0623 95.7335C91.4239 95.3726 92.6658 94.6578 93.6618 93.6618C94.6578 92.6658 95.3726 91.4239 95.7335 90.0623C96.0944 88.7007 96.0886 87.2679 95.7168 85.9093C95.3449 84.5506 94.6201 83.3146 93.6161 82.3266C92.612 81.3386 91.3645 80.6339 90 80.284V52H94ZM80.284 86H19.716C19.3578 84.6249 18.6392 83.3703 17.6345 82.3655C16.6297 81.3608 15.3751 80.6422 14 80.284V19.716C15.3751 19.3578 16.6297 18.6392 17.6345 17.6345C18.6392 16.6297 19.3578 15.3751 19.716 14H80.284C80.6422 15.3751 81.3608 16.6297 82.3655 17.6345C83.3703 18.6392 84.6249 19.3578 86 19.716V80.284C84.6249 80.6422 83.3703 81.3608 82.3655 82.3655C81.3608 83.3703 80.6422 84.6249 80.284 86ZM88 8C88.7911 8 89.5645 8.2346 90.2223 8.67412C90.8801 9.11365 91.3928 9.73836 91.6955 10.4693C91.9983 11.2002 92.0775 12.0044 91.9231 12.7804C91.7688 13.5563 91.3878 14.269 90.8284 14.8284C90.269 15.3878 89.5563 15.7688 88.7804 15.9231C88.0044 16.0775 87.2002 15.9983 86.4693 15.6955C85.7384 15.3928 85.1136 14.8801 84.6741 14.2223C84.2346 13.5645 84 12.7911 84 12C84.0012 10.9395 84.4231 9.92281 85.1729 9.17294C85.9228 8.42306 86.9395 8.00123 88 8ZM8 12C8 11.2089 8.2346 10.4355 8.67412 9.77772C9.11365 9.11992 9.73836 8.60723 10.4693 8.30448C11.2002 8.00173 12.0044 7.92252 12.7804 8.07686C13.5563 8.2312 14.269 8.61216 14.8284 9.17157C15.3878 9.73098 15.7688 10.4437 15.9231 11.2196C16.0775 11.9956 15.9983 12.7998 15.6955 13.5307C15.3928 14.2616 14.8801 14.8864 14.2223 15.3259C13.5645 15.7654 12.7911 16 12 16C10.9395 15.9988 9.92281 15.5769 9.17294 14.8271C8.42306 14.0772 8.00123 13.0605 8 12ZM12 92C11.2089 92 10.4355 91.7654 9.77772 91.3259C9.11992 90.8864 8.60723 90.2616 8.30448 89.5307C8.00173 88.7998 7.92252 87.9956 8.07686 87.2196C8.2312 86.4437 8.61216 85.731 9.17157 85.1716C9.73098 84.6122 10.4437 84.2312 11.2196 84.0769C11.9956 83.9225 12.7998 84.0017 13.5307 84.3045C14.2616 84.6072 14.8864 85.1199 15.3259 85.7777C15.7654 86.4355 16 87.2089 16 88C15.9988 89.0605 15.5769 90.0772 14.8271 90.8271C14.0772 91.5769 13.0605 91.9988 12 92ZM92 88C92 88.7911 91.7654 89.5645 91.3259 90.2223C90.8864 90.8801 90.2616 91.3928 89.5307 91.6955C88.7998 91.9983 87.9956 92.0775 87.2196 91.9231C86.4437 91.7688 85.731 91.3878 85.1716 90.8284C84.6122 90.269 84.2312 89.5563 84.0769 88.7804C83.9225 88.0044 84.0017 87.2002 84.3045 86.4693C84.6072 85.7384 85.1199 85.1136 85.7777 84.6741C86.4355 84.2346 87.2089 84 88 84C89.0605 84.0012 90.0772 84.4231 90.8271 85.1729C91.5769 85.9228 91.9988 86.9395 92 88Z" fill="#0566F8"/>
<path d="M77.2319 41.3848C77.7937 39.8905 77.9983 38.2856 77.8296 36.6981C77.6609 35.1107 77.1234 33.5846 76.2601 32.2418C75.3967 30.899 74.2315 29.7766 72.8573 28.9641C71.483 28.1517 69.9379 27.6718 68.3453 27.5626C68.1997 25.4863 67.4221 23.5042 66.1171 21.8827C64.812 20.2612 63.0419 19.078 61.0447 18.492C59.0475 17.9059 56.9187 17.9452 54.9444 18.6044C52.9701 19.2637 51.2449 20.5113 50.0005 22.1798C48.756 20.5113 47.0308 19.2637 45.0565 18.6045C43.0822 17.9452 40.9535 17.906 38.9563 18.492C36.959 19.0781 35.189 20.2613 33.8839 21.8828C32.5789 23.5042 31.8013 25.4863 31.6557 27.5626C30.063 27.6718 28.5179 28.1518 27.1437 28.9642C25.7695 29.7766 24.6043 30.899 23.741 32.2419C22.8776 33.5847 22.3402 35.1107 22.1714 36.6981C22.0027 38.2856 22.2073 39.8905 22.7691 41.3848C21.3287 42.3139 20.1443 43.5893 19.3241 45.0943C18.504 46.5993 18.0742 48.286 18.0742 50C18.0742 51.714 18.504 53.4007 19.3241 54.9057C20.1443 56.4107 21.3287 57.6861 22.7691 58.6152C22.2073 60.1095 22.0026 61.7144 22.1714 63.3019C22.3401 64.8894 22.8776 66.4154 23.7409 67.7582C24.6042 69.1011 25.7695 70.2235 27.1437 71.036C28.5179 71.8484 30.063 72.3284 31.6557 72.4376C31.8013 74.5139 32.5789 76.496 33.884 78.1174C35.1891 79.7389 36.9591 80.9221 38.9563 81.5081C40.9536 82.0941 43.0823 82.0549 45.0566 81.3956C47.0308 80.7363 48.7561 79.4887 50.0005 77.8202C51.2449 79.4886 52.9701 80.7363 54.9444 81.3955C56.9186 82.0548 59.0474 82.094 61.0446 81.508C63.0418 80.922 64.8119 79.7388 66.1169 78.1174C67.422 76.4959 68.1996 74.5139 68.3453 72.4376C69.9379 72.3284 71.483 71.8484 72.8572 71.0359C74.2314 70.2235 75.3967 69.101 76.26 67.7582C77.1233 66.4154 77.6608 64.8893 77.8295 63.3019C77.9983 61.7144 77.7936 60.1095 77.2319 58.6152C78.6722 57.6861 79.8567 56.4107 80.6768 54.9057C81.497 53.4007 81.9267 51.714 81.9267 50C81.9267 48.286 81.497 46.5993 80.6768 45.0943C79.8567 43.5893 78.6722 42.3139 77.2319 41.3848ZM41.8189 78C40.4653 77.9848 39.1539 77.5272 38.0847 76.6971C37.0155 75.8669 36.2473 74.7097 35.8973 73.4021C35.5473 72.0945 35.6347 70.7083 36.1462 69.455C36.6576 68.2017 37.5651 67.1501 38.7301 66.4608C38.9574 66.3293 39.1565 66.1543 39.3162 65.9458C39.4758 65.7373 39.5928 65.4994 39.6604 65.2456C39.7281 64.9919 39.7451 64.7273 39.7104 64.467C39.6758 64.2067 39.5902 63.9558 39.4585 63.7286C36.9861 60.5034 32.9753 66.149 32.2361 68.4512C30.6006 68.441 29.0359 67.7829 27.8847 66.6212C26.7336 65.4594 26.09 63.8886 26.0948 62.2532C26.0997 60.6177 26.7527 59.0508 27.9107 57.8959C29.0688 56.741 30.6374 56.0922 32.2729 56.0918C32.5355 56.0919 32.7956 56.0402 33.0383 55.9397C33.281 55.8392 33.5015 55.6919 33.6873 55.5062C33.873 55.3204 34.0203 55.0999 34.1208 54.8573C34.2213 54.6146 34.273 54.3545 34.2729 54.0918C33.7487 49.8158 26.5289 53.2484 24.9399 55.2354C24.0545 54.6785 23.3248 53.9061 22.8191 52.9905C22.3134 52.0749 22.0481 51.046 22.0481 50C22.0481 48.954 22.3134 47.9251 22.8191 47.0095C23.3248 46.0939 24.0545 45.3215 24.9399 44.7646C26.5243 46.751 33.7507 50.1832 34.2731 45.9084C34.2731 45.6457 34.2214 45.3856 34.1209 45.1429C34.0204 44.9002 33.8731 44.6797 33.6873 44.4939C33.5016 44.3082 33.2811 44.1609 33.0384 44.0604C32.7957 43.9598 32.5356 43.9081 32.2729 43.9082C30.6487 43.8905 29.0967 43.2342 27.9527 42.0811C26.8087 40.928 26.1646 39.3709 26.1598 37.7466C26.1549 36.1224 26.7897 34.5615 27.9269 33.4016C29.064 32.2417 30.612 31.5761 32.2361 31.5488C32.9693 33.8454 36.9843 39.4952 39.4585 36.2718C39.5902 36.0445 39.6758 35.7936 39.7104 35.5332C39.7451 35.2729 39.7281 35.0082 39.6604 34.7544C39.5928 34.5006 39.4758 34.2627 39.3161 34.0541C39.1564 33.8456 38.9572 33.6705 38.7299 33.539C37.79 32.9968 37.0094 32.2167 36.4665 31.2772C35.9237 30.3377 35.6377 29.2719 35.6373 28.1868C35.6369 27.1017 35.9221 26.0357 36.4643 25.0958C37.0065 24.1559 37.7865 23.3752 38.726 22.8323C39.6655 22.2894 40.7313 22.0034 41.8164 22.0029C42.9015 22.0025 43.9675 22.2877 44.9074 22.8298C45.8474 23.372 46.628 24.152 47.171 25.0914C47.7139 26.0309 48 27.0967 48.0005 28.1818C48.0133 28.4182 47.9569 37.6262 48.0281 37.8632C47.9747 38.15 47.9745 61.8458 48.0281 62.1368C47.9465 62.3172 48.0289 71.6358 48.0005 71.8184C47.9985 73.4573 47.3466 75.0284 46.1878 76.1873C45.0289 77.3461 43.4577 77.998 41.8189 78ZM75.0611 55.2354C73.4767 53.249 66.2503 49.8168 65.7279 54.0916C65.7278 54.3543 65.7795 54.6144 65.88 54.8571C65.9805 55.0998 66.1279 55.3203 66.3136 55.5061C66.4993 55.6918 66.7199 55.8392 66.9626 55.9397C67.2053 56.0402 67.4654 56.0919 67.7281 56.0918C69.3523 56.1095 70.9042 56.7658 72.0483 57.9189C73.1923 59.072 73.8363 60.6291 73.8412 62.2534C73.846 63.8776 73.2112 65.4386 72.0741 66.5984C70.937 67.7583 69.3889 68.4239 67.7649 68.4512C67.0337 66.153 63.0083 60.5026 60.5425 63.7282C60.4108 63.9555 60.3252 64.2064 60.2905 64.4668C60.2559 64.7271 60.2729 64.9918 60.3405 65.2456C60.4082 65.4994 60.5252 65.7373 60.6849 65.9459C60.8445 66.1544 61.0437 66.3295 61.2711 66.461C62.211 67.0032 62.9916 67.7833 63.5344 68.7228C64.0773 69.6623 64.3633 70.7281 64.3637 71.8132C64.3641 72.8983 64.0788 73.9643 63.5367 74.9042C62.9945 75.8441 62.2144 76.6248 61.275 77.1677C60.3355 77.7106 59.2696 77.9966 58.1846 77.9971C57.0995 77.9975 56.0334 77.7123 55.0935 77.1702C54.1536 76.628 53.3729 75.848 52.83 74.9086C52.287 73.9691 52.001 72.9033 52.0005 71.8182C51.9885 71.5848 52.0435 62.3716 51.9729 62.1368C52.0263 61.85 52.0265 38.1542 51.9729 37.8632C52.0533 37.6696 51.9729 28.3738 52.0005 28.1814C52.001 27.0964 52.2872 26.0306 52.8302 25.0911C53.3731 24.1517 54.1538 23.3718 55.0938 22.8297C56.0337 22.2876 57.0998 22.0025 58.1848 22.0029C59.2699 22.0034 60.3357 22.2895 61.2751 22.8324C62.2146 23.3753 62.9946 24.156 63.5367 25.0959C64.0789 26.0358 64.3641 27.1018 64.3637 28.1869C64.3633 29.2719 64.0773 30.3378 63.5344 31.2773C62.9915 32.2167 62.2109 32.9968 61.2711 33.539C60.8986 33.765 60.6095 34.1057 60.4474 34.5101C60.2853 34.9145 60.2588 35.3606 60.372 35.7813C60.4853 36.202 60.732 36.5745 61.0752 36.8429C61.4184 37.1113 61.8395 37.2609 62.2751 37.2694C63.5764 36.8162 64.752 36.0617 65.7061 35.0675C66.6602 34.0734 67.3656 32.8676 67.7649 31.5488C69.4003 31.559 70.9651 32.2171 72.1162 33.3788C73.2674 34.5406 73.911 36.1114 73.9061 37.7468C73.9013 39.3823 73.2483 40.9492 72.0902 42.1041C70.9322 43.259 69.3636 43.9078 67.7281 43.9082C67.4654 43.9081 67.2053 43.9598 66.9626 44.0603C66.7199 44.1608 66.4994 44.3081 66.3137 44.4938C66.128 44.6796 65.9807 44.9001 65.8802 45.1427C65.7797 45.3854 65.728 45.6455 65.7281 45.9082C66.2523 50.1842 73.4721 46.7516 75.0611 44.7646C75.9465 45.3215 76.6761 46.0939 77.1819 47.0095C77.6876 47.9251 77.9529 48.954 77.9529 50C77.9529 51.046 77.6876 52.0749 77.1819 52.9905C76.6761 53.9061 75.9465 54.6785 75.0611 55.2354Z" fill="#0566F8"/>
</svg>
