<svg width="21" height="20" viewBox="0 0 21 20" fill="none" xmlns="http://www.w3.org/2000/svg">
<path fill-rule="evenodd" clip-rule="evenodd" d="M0.5 9.99976C0.5 4.48476 4.986 -0.000244141 10.5 -0.000244141C16.014 -0.000244141 20.5 4.48476 20.5 9.99976C20.5 15.5138 16.014 19.9998 10.5 19.9998C7.373 19.9998 4.483 18.5768 2.573 16.0978C2.328 15.7788 2.388 15.3218 2.706 15.0778C3.024 14.8318 3.479 14.8928 3.725 15.2098C5.358 17.3298 7.827 18.5458 10.5 18.5458C15.212 18.5458 19.046 14.7128 19.046 9.99976C19.046 5.28776 15.212 1.45376 10.5 1.45376C5.788 1.45376 1.955 5.28776 1.955 9.99976C1.955 10.4378 1.987 10.8728 2.052 11.2988C2.112 11.6948 1.84 12.0658 1.443 12.1268C1.044 12.1928 0.675 11.9158 0.615 11.5188C0.539 11.0208 0.5 10.5098 0.5 9.99976ZM9.4341 5.83716C9.4341 5.43516 9.7601 5.10916 10.1611 5.10916C10.5621 5.10916 10.8881 5.43516 10.8881 5.83716V10.2832L14.3121 12.3252C14.6571 12.5312 14.7701 12.9772 14.5641 13.3222C14.4291 13.5492 14.1871 13.6762 13.9401 13.6762C13.8131 13.6762 13.6841 13.6432 13.5681 13.5742L9.7881 11.3202C9.5691 11.1882 9.4341 10.9512 9.4341 10.6952V5.83716Z" fill="white"/>
</svg>
