<svg width="20" height="23" viewBox="0 0 20 23" fill="none" xmlns="http://www.w3.org/2000/svg">
<path d="M15.0346 5.47944L15.0432 5.48947L15.0522 5.49904C15.9732 6.46922 17.3198 6.97262 18.9714 7.05553V9.91211C17.2921 9.88161 15.6491 9.39618 14.2194 8.5033L13.4545 8.02564V8.92739V15.1136V15.1445L13.4583 15.1751C13.4911 15.4397 13.5079 15.7062 13.5086 15.9728C13.5085 17.2591 13.127 18.5164 12.4124 19.5859C11.6977 20.6555 10.6819 21.4892 9.49339 21.9814C8.30489 22.4737 6.99709 22.6026 5.73538 22.3516C4.47367 22.1006 3.31471 21.4811 2.40507 20.5715C1.49543 19.6619 0.875951 18.5029 0.624982 17.2412C0.374012 15.9795 0.502818 14.6717 0.995114 13.4832C1.48741 12.2947 2.32108 11.2788 3.39071 10.5641C4.46021 9.84951 5.71757 9.46805 7.00384 9.46796C7.22093 9.46839 7.4378 9.47939 7.65366 9.50088V12.1372C7.10393 12.0461 6.53822 12.074 5.99552 12.2224C5.22948 12.4318 4.54615 12.8713 4.03778 13.4814C3.52941 14.0915 3.22047 14.8429 3.15268 15.6342C3.08488 16.4254 3.26149 17.2184 3.65867 17.9061C4.05585 18.5938 4.65446 19.1431 5.3737 19.4798C6.09294 19.8166 6.89818 19.9245 7.6807 19.7891C8.46322 19.6536 9.18536 19.2814 9.74961 18.7225C10.3139 18.1637 10.6931 17.4452 10.836 16.664L10.8442 16.6194V16.574V1.48881L13.4812 1.55265C13.5487 2.99575 14.0941 4.37777 15.0346 5.47944Z" stroke="white"/>
</svg>
