<svg width="43" height="42" viewBox="0 0 43 42" fill="none" xmlns="http://www.w3.org/2000/svg">
<path fill-rule="evenodd" clip-rule="evenodd" d="M16.2088 11C13.592 11 11.4707 13.1213 11.4707 15.7381V26.2143C11.4707 28.8311 13.592 30.9524 16.2088 30.9524H26.685C29.3018 30.9524 31.4231 28.8311 31.4231 26.2143V15.7381C31.4231 13.1213 29.3018 11 26.685 11H16.2088ZM10.4707 15.7381C10.4707 12.569 13.0397 10 16.2088 10H26.685C29.8541 10 32.4231 12.569 32.4231 15.7381V26.2143C32.4231 29.3833 29.8541 31.9524 26.685 31.9524H16.2088C13.0397 31.9524 10.4707 29.3833 10.4707 26.2143V15.7381ZM22.0335 17.2801C21.2657 17.1662 20.4815 17.2974 19.7925 17.6549C19.1035 18.0124 18.5447 18.5781 18.1958 19.2715C17.8468 19.9648 17.7253 20.7506 17.8486 21.517C17.9719 22.2834 18.3338 22.9913 18.8827 23.5402C19.4315 24.0891 20.1395 24.451 20.9059 24.5743C21.6723 24.6976 22.4581 24.5761 23.1514 24.2271C23.8448 23.8781 24.4105 23.3194 24.768 22.6304C25.1255 21.9414 25.2566 21.1572 25.1428 20.3893C25.0266 19.6061 24.6617 18.881 24.1018 18.3211C23.5419 17.7612 22.8168 17.3963 22.0335 17.2801ZM19.3319 16.7673C20.2076 16.3129 21.2043 16.1462 22.1802 16.2909C23.1757 16.4385 24.0973 16.9024 24.8089 17.614C25.5205 18.3256 25.9843 19.2472 26.132 20.2427C26.2767 21.2186 26.11 22.2153 25.6556 23.091C25.2012 23.9667 24.4823 24.6768 23.601 25.1204C22.7198 25.5639 21.7211 25.7183 20.747 25.5616C19.773 25.4048 18.8732 24.945 18.1755 24.2473C17.4779 23.5497 17.018 22.6499 16.8613 21.6758C16.7046 20.7018 16.859 19.7031 17.3025 18.8219C17.7461 17.9406 18.4562 17.2217 19.3319 16.7673ZM27.2088 14.7143C26.9327 14.7143 26.7088 14.9381 26.7088 15.2143C26.7088 15.4904 26.9327 15.7143 27.2088 15.7143H27.2188C27.4949 15.7143 27.7188 15.4904 27.7188 15.2143C27.7188 14.9381 27.4949 14.7143 27.2188 14.7143H27.2088Z" fill="white"/>
</svg>
