<svg id="Layer_1" data-name="Layer 1" xmlns="http://www.w3.org/2000/svg" viewBox="0 0 697.75 115.5"><defs><style>.cls-1{fill:#b6b6b0;}.cls-2{fill:#09B5F8;}</style></defs><title>logoICLS</title><path class="cls-1" d="M218-276.91a22.51,22.51,0,0,0-17,2.28,24.47,24.47,0,0,0-7.62,7.23v-30.39h-7.2v72.9h7.2v-29.34c.49-10.17,9.07-17.71,18.06-17.16,7.61.46,14.37,6.65,15.72,15v31.08h6.72v-33.6C232.15-267.64,226-274.63,218-276.91Z" transform="translate(463.89 340.39)"/><path class="cls-1" d="M153.1-224.9c-11.68,0-21.34-6.3-25-16.32-4.09-11.21-1.25-23.17,7.23-30.39s21.37-8.26,31.2-2.48a21.68,21.68,0,0,1,4.21,3.45c1.19,1.19,3.22,2.36,1,4.44-2,1.86-3.47,2.17-5.79,0-8.69-8.27-23.16-6.48-29.33,3.36-4.53,7.21-4.1,18,1,24.86,4.22,5.67,13.66,8.2,21.72,5.87a11.48,11.48,0,0,0,6.58-4.2c2-2.88,3.86-1.62,5.71-.08,2.47,2,.39,3.75-.88,4.94A23.92,23.92,0,0,1,153.1-224.9Z" transform="translate(463.89 340.39)"/><path class="cls-1" d="M78.61-249c11.45.22,22.92,0,34.38.14,3.32.05,4.36-1.09,4.18-4.33-.51-8.86-3.87-16.21-11.62-20.77-8.65-5.08-17.76-5.27-26.5-.15C67.93-267.63,65-256,67.87-243.77c2.87,12,12.89,18.84,26,18.88,6.86,0,13.12-1.72,18.23-6.57,1-.9,2.2-1.84.67-3.25-1.14-1-2-3-4.08-1.59-1.11.72-2.18,1.52-3.32,2.2C94.06-227.37,79-232.21,75-243.7,73.64-247.52,74.06-249.12,78.61-249Zm-4.32-8.79c1.37-7.52,9.61-14,17.88-14,8.42,0,16.49,6.41,17.81,14,.49,2.85-.51,3.93-3.41,3.84-4.82-.15-9.64,0-14.46,0s-9.64-.11-14.45,0C74.72-253.87,73.77-255,74.29-257.83Z" transform="translate(463.89 340.39)"/><polygon class="cls-1" points="530.95 46.26 506.61 46.26 499.61 46.26 475.27 46.26 475.27 51.78 499.61 51.78 499.61 115.5 506.61 115.5 506.61 51.78 530.95 51.78 530.95 46.26"/><path class="cls-2" d="M-438.52-280.69a4.08,4.08,0,0,1,.12-4.2l30.15-53s1.93-2.47-1.71-2.47h-22.26l-30.6,53.64s-2.4,2.76,0,6.84l31.38,55h22s3,.18.54-4Zm13.29-52.38a5,5,0,0,1,5,5,5,5,0,0,1-5,5,5,5,0,0,1-5-5A5,5,0,0,1-425.23-333.07Z" transform="translate(463.89 340.39)"/><path class="cls-2" d="M-255.75-286.75l-30.6-53.64h-22.26c-3.64,0-1.71,2.47-1.71,2.47l30.15,53a4.08,4.08,0,0,1,.12,4.2l-29.64,51.84c-2.46,4.14.54,4,.54,4h22l31.38-55C-253.35-284-255.75-286.75-255.75-286.75Zm-38.47,54.68a5,5,0,0,1-5-5,5,5,0,0,1,5-5,5,5,0,0,1,5,5A5,5,0,0,1-294.22-232.07Z" transform="translate(463.89 340.39)"/><path class="cls-1" d="M-387.72-290.23h-8.48a8,8,0,0,0-8,8v45.56a8,8,0,0,0,8,8h8.48a8,8,0,0,0,8-8v-45.56A8,8,0,0,0-387.72-290.23ZM-392-273.8a5,5,0,0,1-5-5,5,5,0,0,1,5-5,5,5,0,0,1,5,5A5,5,0,0,1-392-273.8Z" transform="translate(463.89 340.39)"/><path class="cls-1" d="M-354.78-310h-8.84a8,8,0,0,0-8,8v65.36a8,8,0,0,0,8,8h8.84a8,8,0,0,0,8-8V-302A8,8,0,0,0-354.78-310Zm-4.42,75.22a5,5,0,0,1-5-5,5,5,0,0,1,5-5,5,5,0,0,1,5,5A5,5,0,0,1-359.2-234.81Z" transform="translate(463.89 340.39)"/><path class="cls-1" d="M-323.46-330h-8.48a8,8,0,0,0-8,8v85.34a8,8,0,0,0,8,8h8.48a8,8,0,0,0,8-8V-322A8,8,0,0,0-323.46-330Zm-4.24,16.43a5,5,0,0,1-5-5,5,5,0,0,1,5-5,5,5,0,0,1,5,5A5,5,0,0,1-327.7-313.58Z" transform="translate(463.89 340.39)"/><rect class="cls-2" x="222.23" y="42.6" width="16.74" height="72.9"/><path class="cls-2" d="M-154.81-277.53a24.64,24.64,0,0,0-11.43-7.11c-7.44-2.08-16.45-.63-22.68,5.22-8.88,8.32-9.62,23.25-2.25,32.31,6.52,8,16.75,8.19,18.27,8.19a25.61,25.61,0,0,0,18.54-8.37l10.08,9.72A39.79,39.79,0,0,1-167-225.33a39.54,39.54,0,0,1-21.33-2.79c-3.28-1.33-14.93-6.06-20.61-18.18a33.45,33.45,0,0,1-2.7-9c-.57-3.33-2.28-14.26,3.69-25.11,7.32-13.31,21.08-17.22,26-18.27a41.08,41.08,0,0,1,25.29,2.79,40.33,40.33,0,0,1,12.6,9.09Z" transform="translate(463.89 340.39)"/><polygon class="cls-2" points="347.15 101.1 347.15 42.6 331.49 42.6 331.49 101.1 331.49 115.5 347.15 115.5 384.59 115.5 384.59 101.1 347.15 101.1"/><path class="cls-2" d="M-25.93-280.58s-15.3-10.08-28.26-3.51c0,0-3.2,2.07-4.14,3.83,0,0-5.43,6.76,7.14,10.18,0,0,21.3,4.35,26.34,8.58,0,0,5.67,2.25,7.47,12.06,0,0,2.25,8.64-5.85,17,0,0-10.17,8.82-27.27,7.38,0,0-15-.36-25.65-8.46l5.31-11.25s9.54,6.48,15.75,6.48c0,0,13.41,1.89,17-1.08,0,0,10.26-5.31.27-12.24,0,0-27.09-6.15-33.57-13.23,0,0-8.52-13.92-.48-23.76,0,0,7-9.72,19.08-10.44,0,0,20.16-1.44,32.64,6.72Z" transform="translate(463.89 340.39)"/></svg>