<svg width="60" height="60" viewBox="0 0 60 60" fill="none" xmlns="http://www.w3.org/2000/svg">
<rect width="60" height="60" rx="30" fill="#09B5F8"/>
<path fill-rule="evenodd" clip-rule="evenodd" d="M24.6801 20.3035C24.2744 20.7054 24.2716 21.3569 24.6829 21.7588L30.7647 27.7147L30.8722 27.8065C31.2833 28.1122 31.8709 28.0803 32.2441 27.7106C32.4462 27.5103 32.5494 27.247 32.5494 26.985C32.5494 26.7216 32.4462 26.4569 32.2413 26.2566L26.1594 20.2994L26.052 20.2076C25.6409 19.9019 25.0533 19.9338 24.6801 20.3035ZM24.5886 38.3481C24.2747 38.7515 24.3081 39.3297 24.68 39.6981C25.0871 40.1 25.7494 40.1014 26.1593 39.6995L35.317 30.7286L35.4109 30.6235C35.5534 30.4405 35.6251 30.2209 35.6251 30.0003C35.6251 29.7383 35.5219 29.4749 35.3197 29.2746C34.9126 28.8714 34.2503 28.87 33.8404 29.2719L24.6828 38.2427L24.5886 38.3481Z" fill="white"/>
</svg>
