<svg width="60" height="61" viewBox="0 0 60 61" fill="none" xmlns="http://www.w3.org/2000/svg">
<rect y="0.0855713" width="60" height="60" rx="30" fill="white" fill-opacity="0.2"/>
<path fill-rule="evenodd" clip-rule="evenodd" d="M24.6801 20.3889C24.2744 20.7908 24.2716 21.4424 24.6829 21.8443L30.7647 27.8002L30.8722 27.8919C31.2833 28.1977 31.8709 28.1657 32.2441 27.796C32.4462 27.5958 32.5494 27.3324 32.5494 27.0704C32.5494 26.8071 32.4462 26.5423 32.2413 26.3421L26.1594 20.3848L26.052 20.2931C25.6409 19.9873 25.0533 20.0193 24.6801 20.3889ZM24.5886 38.4336C24.2747 38.8369 24.3081 39.4151 24.68 39.7835C25.0871 40.1854 25.7494 40.1868 26.1593 39.7849L35.317 30.8141L35.4109 30.709C35.5534 30.526 35.6251 30.3063 35.6251 30.0857C35.6251 29.8237 35.5219 29.5604 35.3197 29.3601C34.9126 28.9568 34.2503 28.9554 33.8404 29.3573L24.6828 38.3282L24.5886 38.4336Z" fill="white"/>
</svg>
