<svg width="224" height="137" viewBox="0 0 172 137" fill="none" xmlns="http://www.w3.org/2000/svg">
<path d="M8.10822 104.756L8.11021 104.761C12.8553 114.881 19.3706 122.669 27.6702 128.079L27.6792 128.085C35.975 133.367 45.3951 136 55.9095 136C66.424 136 75.8441 133.367 84.1399 128.085L84.1431 128.083C92.5672 122.674 99.1467 114.884 103.894 104.761L103.895 104.756C108.646 94.4989 111.004 82.4039 111.004 68.5C111.004 54.5976 108.647 42.5627 103.894 32.4262C99.1495 22.1823 92.5705 14.3894 84.1416 9.10059C75.8467 3.69537 66.4258 1 55.9095 1C45.3922 1 35.9703 3.69597 27.6747 9.10239C19.3688 14.3922 12.853 22.185 8.1092 32.4262C3.35686 42.5627 1 54.5976 1 68.5C1 82.4039 3.35735 94.4989 8.10822 104.756ZM76.8793 102.095L76.8792 102.095L76.8731 102.104C71.766 109.472 64.8102 113.126 55.9095 113.126C47.138 113.126 40.1769 109.476 34.943 102.1C29.8209 94.7072 27.1854 83.5575 27.1854 68.5C27.1854 53.4423 29.8209 42.2926 34.9431 34.9003C40.177 27.5239 47.138 23.8736 55.9095 23.8736C64.8102 23.8736 71.766 27.5283 76.873 34.8961L76.8793 34.9049C82.1213 42.2955 84.8183 53.4427 84.8183 68.5C84.8183 83.5573 82.1213 94.7045 76.8793 102.095ZM171 3.84722V2.84722H170H118.675H117.675V3.84722V23.9819V24.9819H118.675H144.999V133.153V134.153H145.999H170H171V133.153V3.84722Z" stroke="#09B5F8" stroke-width="2"/>
</svg>
