<svg width="224" height="137" viewBox="0 0 224 137" fill="none" xmlns="http://www.w3.org/2000/svg">
<path d="M8.23351 104.742L8.23662 104.749L8.23982 104.756C13.0875 114.824 19.7582 122.568 28.2624 127.946C36.7632 133.322 46.4428 136 57.2707 136C68.0985 136 77.7781 133.322 86.2789 127.946C94.7852 122.567 101.396 114.82 106.121 104.748C110.974 94.5434 113.381 82.4505 113.381 68.5C113.381 54.5516 110.975 42.5188 106.121 32.4348C101.397 22.2434 94.7869 14.434 86.2789 9.05397C77.7781 3.6785 68.0985 1 57.2707 1C46.4428 1 36.7632 3.6785 28.2624 9.05397C19.7551 14.4336 13.0844 22.242 8.23774 32.4324L8.2355 32.4372C3.50522 42.5201 1.16016 54.5518 1.16016 68.5C1.16016 82.4487 3.50538 94.5395 8.23351 104.742ZM74.8111 99.1711L74.811 99.1711L74.8041 99.1816C70.574 105.644 64.7604 108.833 57.2707 108.833C49.9102 108.833 44.0904 105.65 39.7338 99.1764C35.487 92.6847 33.2872 82.5135 33.2872 68.5C33.2872 54.4866 35.487 44.3155 39.7337 37.8238C44.0904 31.3505 49.9102 28.1671 57.2707 28.1671C64.7604 28.1671 70.574 31.3557 74.8041 37.8184L74.8041 37.8184L74.8111 37.8289C79.1764 44.3178 81.4378 54.4859 81.4378 68.5C81.4378 82.5141 79.1764 92.6822 74.8111 99.1711ZM222.84 108.547V107.547H221.84H169.062L196.802 81.3575C196.803 81.3564 196.804 81.3553 196.805 81.3542C205.291 73.4833 211.089 66.403 214.108 60.115C217.113 53.8528 218.615 47.1524 218.615 40.0262C218.615 32.1308 216.545 25.25 212.372 19.4296C208.334 13.5029 202.606 8.98437 195.236 5.8595C187.98 2.60896 179.511 1 169.853 1C158.338 1 148.083 3.1669 139.109 7.52784C130.145 11.762 123.083 17.6923 117.953 25.3234L117.385 26.1697L118.242 26.7219L139.919 40.6833L140.72 41.1993L141.274 40.4238C144.24 36.2709 147.903 33.2038 152.267 31.1987L152.277 31.1941L152.287 31.1893C156.667 29.0586 161.597 27.9834 167.097 27.9834C173.716 27.9834 178.531 29.3707 181.709 31.9813L181.724 31.9936L181.74 32.0053C185.002 34.4797 186.672 38.08 186.672 42.9655C186.672 46.3372 185.801 49.7957 184.025 53.3505C182.264 56.7521 178.809 60.9444 173.573 65.9372C173.573 65.9379 173.572 65.9386 173.571 65.9393L123.975 112.78L123.662 113.076V113.507V132.796V133.796H124.662H221.84H222.84V132.796V108.547Z" stroke="#09B5F8" stroke-width="2"/>
</svg>
