<svg width="222" height="137" viewBox="0 0 222 137" fill="none" xmlns="http://www.w3.org/2000/svg">
<path d="M8.14367 104.742L8.14677 104.749L8.14998 104.756C12.9976 114.824 19.6684 122.568 28.1726 127.946C36.6733 133.322 46.3529 136 57.1808 136C68.0087 136 77.6883 133.322 86.189 127.946C94.695 122.567 101.306 114.82 106.031 104.749C110.884 94.5444 113.291 82.451 113.291 68.5C113.291 54.5516 110.885 42.5188 106.031 32.4347C101.307 22.2434 94.697 14.434 86.189 9.05397C77.6883 3.6785 68.0087 1 57.1808 1C46.3529 1 36.6733 3.6785 28.1726 9.05397C19.6652 14.4336 12.9946 22.242 8.1479 32.4324L8.14565 32.4372C3.41537 42.5201 1.07031 54.5518 1.07031 68.5C1.07031 82.4487 3.41554 94.5395 8.14367 104.742ZM74.7213 99.1711L74.7212 99.1711L74.7143 99.1816C70.4841 105.644 64.6705 108.833 57.1808 108.833C49.8204 108.833 44.0006 105.65 39.6439 99.1763C35.3972 92.6846 33.1974 82.5135 33.1974 68.5C33.1974 54.4864 35.3972 44.3153 39.644 37.8236C44.0006 31.3504 49.8204 28.1671 57.1808 28.1671C64.6705 28.1671 70.4841 31.3557 74.7143 37.8184L74.7142 37.8184L74.7213 37.8289C79.0865 44.3178 81.3479 54.4859 81.3479 68.5C81.3479 82.5141 79.0865 92.6822 74.7213 99.1711ZM176.563 29.0856L151.579 57.3669L151.328 57.6506V58.029V77.6851V78.6851H152.328H165.922C173.866 78.6851 179.65 79.9947 183.422 82.4706C187.12 84.8984 188.987 88.5153 188.987 93.4834C188.987 98.4217 187.005 102.212 183 104.961C178.936 107.629 173.277 109.017 165.922 109.017C159.289 109.017 152.776 108.052 146.382 106.123C140.113 104.072 134.582 101.244 129.782 97.6434L128.829 96.9291L128.29 97.9904L116.717 120.769L116.329 121.533L117.024 122.034C123.259 126.523 130.779 129.997 139.565 132.472L139.573 132.474L139.581 132.477C148.482 134.825 157.508 136 166.657 136C178.394 136 188.347 134.086 196.477 130.209C204.695 126.348 210.859 121.212 214.899 114.773L214.904 114.766C218.92 108.24 220.93 101.139 220.93 93.4834C220.93 83.5847 217.853 75.2532 211.667 68.5601C205.799 62.094 197.529 57.8901 186.951 55.8832L214.804 24.1528L215.052 23.8697V23.4931V4.20441V3.20441H214.052H124.038H123.038V4.20441V28.0856V29.0856H124.038H176.563ZM75.5507 37.2709L75.5509 37.2708L75.5507 37.2709Z" stroke="#09B5F8" stroke-width="2"/>
</svg>
