<svg width="60" height="60" viewBox="0 0 60 60" fill="none" xmlns="http://www.w3.org/2000/svg">
<rect width="60" height="60" rx="30" fill="#09B5F8"/>
<path fill-rule="evenodd" clip-rule="evenodd" d="M35.3199 20.3035C35.7256 20.7054 35.7284 21.3569 35.3171 21.7588L29.2353 27.7147L29.1278 27.8065C28.7167 28.1122 28.1291 28.0803 27.7559 27.7106C27.5538 27.5103 27.4506 27.247 27.4506 26.985C27.4506 26.7216 27.5538 26.4569 27.7587 26.2566L33.8406 20.2994L33.948 20.2076C34.3591 19.9019 34.9467 19.9338 35.3199 20.3035ZM35.4114 38.3481C35.7253 38.7515 35.6919 39.3297 35.32 39.6981C34.9129 40.1 34.2506 40.1014 33.8407 39.6995L24.683 30.7286L24.5891 30.6235C24.4466 30.4405 24.3749 30.2209 24.3749 30.0003C24.3749 29.7383 24.4781 29.4749 24.6803 29.2746C25.0874 28.8714 25.7497 28.87 26.1596 29.2719L35.3172 38.2427L35.4114 38.3481Z" fill="white"/>
</svg>
