<svg width="60" height="61" viewBox="0 0 60 61" fill="none" xmlns="http://www.w3.org/2000/svg">
<rect y="0.0855713" width="60" height="60" rx="30" fill="white" fill-opacity="0.2"/>
<path fill-rule="evenodd" clip-rule="evenodd" d="M35.3199 20.3889C35.7256 20.7908 35.7284 21.4424 35.3171 21.8443L29.2353 27.8002L29.1278 27.8919C28.7167 28.1977 28.1291 28.1657 27.7559 27.796C27.5538 27.5958 27.4506 27.3324 27.4506 27.0704C27.4506 26.8071 27.5538 26.5423 27.7587 26.3421L33.8406 20.3848L33.948 20.2931C34.3591 19.9873 34.9467 20.0193 35.3199 20.3889ZM35.4114 38.4336C35.7253 38.8369 35.6919 39.4151 35.32 39.7835C34.9129 40.1854 34.2506 40.1868 33.8407 39.7849L24.683 30.8141L24.5891 30.709C24.4466 30.526 24.3749 30.3063 24.3749 30.0857C24.3749 29.8237 24.4781 29.5604 24.6803 29.3601C25.0874 28.9568 25.7497 28.9554 26.1596 29.3573L35.3172 38.3282L35.4114 38.4336Z" fill="white"/>
</svg>
